<?xml version="1.0" encoding="UTF-8"?>
<!DOCTYPE svg PUBLIC "-//W3C//DTD SVG 1.1//EN" "http://www.w3.org/Graphics/SVG/1.1/DTD/svg11.dtd">
<!-- Creator: CorelDRAW 2020 (64-Bit) -->
<svg xmlns="http://www.w3.org/2000/svg" xml:space="preserve" width="97.8958mm" height="97.8958mm" version="1.1" style="shape-rendering:geometricPrecision; text-rendering:geometricPrecision; image-rendering:optimizeQuality; fill-rule:evenodd; clip-rule:evenodd"
viewBox="0 0 2258.5 2258.5"
 xmlns:xlink="http://www.w3.org/1999/xlink"
 xmlns:xodm="http://www.corel.com/coreldraw/odm/2003">
 <defs>
  <style type="text/css">
   <![CDATA[
    .str0 {stroke:black;stroke-width:4.61;stroke-miterlimit:22.9256}
    .str2 {stroke:#424242;stroke-width:4.61;stroke-miterlimit:22.9256}
    .str1 {stroke:black;stroke-width:21.74;stroke-miterlimit:22.9256}
    .fil2 {fill:none;fill-rule:nonzero}
    .fil0 {fill:black;fill-rule:nonzero}
    .fil5 {fill:#424242;fill-rule:nonzero}
    .fil1 {fill:white;fill-rule:nonzero}
    .fil3 {fill:url(#id0);fill-rule:nonzero}
    .fil4 {fill:url(#id1);fill-rule:nonzero}
   ]]>
  </style>
  <radialGradient id="id0" gradientUnits="userSpaceOnUse" gradientTransform="matrix(-1.07545 1.07545 -2.42584 -2.42584 3878 686)" cx="1195.7" cy="575.5" r="454.08" fx="1195.7" fy="575.5">
   <stop offset="0" style="stop-opacity:1; stop-color:white"/>
   <stop offset="1" style="stop-opacity:0; stop-color:white"/>
  </radialGradient>
  <radialGradient id="id1" gradientUnits="userSpaceOnUse" gradientTransform="matrix(-0.881869 0.881869 -1.98919 -1.98919 127 69)" xlink:href="#id0" cx="32.82" cy="32.82" r="553.75" fx="32.82" fy="32.82">
  </radialGradient>
 </defs>
 <g id="Слой_x0020_1">
  <metadata id="CorelCorpID_0Corel-Layer"/>
  <path id="path3191" class="fil0" d="M1129.25 0c-623.35,0 -1129.25,505.9 -1129.25,1129.25 0,623.35 505.9,1129.25 1129.25,1129.25 623.35,0 1129.25,-505.9 1129.25,-1129.25 0,-623.35 -505.9,-1129.25 -1129.25,-1129.25zm0 1097.59c17.5,0 31.66,14.17 31.66,31.66 0,17.5 -14.17,31.66 -31.66,31.66 -17.5,0 -31.66,-14.17 -31.66,-31.66 0,-17.5 14.17,-31.66 31.66,-31.66z"/>
  <path id="path3271" class="fil1 str0" d="M1129.25 575.5c-305.55,0 -553.75,248.2 -553.75,553.75 0,305.55 248.2,553.75 553.75,553.75 305.55,0 553.75,-248.2 553.75,-553.75 0,-305.55 -248.2,-553.75 -553.75,-553.75z"/>
  <path id="path3176" class="fil2 str1" d="M1129.25 10.87c617.46,0 1118.38,500.91 1118.38,1118.38 0,617.46 -500.91,1118.38 -1118.38,1118.38 -617.46,0 -1118.38,-500.91 -1118.38,-1118.38 0,-617.46 500.91,-1118.38 1118.38,-1118.38z"/>
  <path class="fil3" d="M1700.36 1129.25c0,315.28 -255.83,571.3 -571.11,571.3l0 536.2c611.31,0 1107.5,-496.19 1107.5,-1107.5l-536.39 0z"/>
  <path id="path3193" class="fil4" d="M558.14 1129.25c0,-315.28 255.83,-571.3 571.11,-571.3l0 -536.2c-611.31,0 -1107.5,496.19 -1107.5,1107.5l536.39 0z"/>
  <path id="path3271_0" class="fil5 str2" d="M1129.25 1102.16c14.98,0 27.09,12.11 27.09,27.09 0,14.98 -12.11,27.09 -27.09,27.09 -14.98,0 -27.09,-12.11 -27.09,-27.09 0,-14.98 12.11,-27.09 27.09,-27.09z"/>
 </g>
</svg>
